<mxfile host="app.diagrams.net" modified="2023-07-29T10:29:29.537Z" agent="Mozilla/5.0 (Macintosh; Intel Mac OS X 10_15_7) AppleWebKit/537.36 (KHTML, like Gecko) Chrome/115.0.0.0 Safari/537.36" etag="HSM684t68aiSMjZDZNfI" version="21.6.5" type="github">
  <diagram name="Page-1" id="c7558073-3199-34d8-9f00-42111426c3f3">
    <mxGraphModel dx="1829" dy="926" grid="1" gridSize="10" guides="1" tooltips="1" connect="1" arrows="1" fold="1" page="1" pageScale="1" pageWidth="1654" pageHeight="2336" background="none" math="0" shadow="0">
      <root>
        <mxCell id="0" />
        <mxCell id="1" parent="0" />
        <mxCell id="f-DWgOqDwiJIsd9l93Yp-104" style="edgeStyle=orthogonalEdgeStyle;rounded=0;orthogonalLoop=1;jettySize=auto;html=1;exitX=0.5;exitY=1;exitDx=0;exitDy=0;strokeWidth=2;fillColor=#f8cecc;strokeColor=#990001;entryX=0.5;entryY=0;entryDx=0;entryDy=0;" edge="1" parent="1" source="f-DWgOqDwiJIsd9l93Yp-101" target="f-DWgOqDwiJIsd9l93Yp-105">
          <mxGeometry relative="1" as="geometry">
            <mxPoint x="409.12" y="380" as="targetPoint" />
          </mxGeometry>
        </mxCell>
        <mxCell id="f-DWgOqDwiJIsd9l93Yp-101" value="sendMessage" style="rounded=1;whiteSpace=wrap;html=1;verticalAlign=middle;fillColor=#E6FFCC;fontStyle=1;strokeWidth=3;" vertex="1" parent="1">
          <mxGeometry x="443.12" y="230" width="120" height="60" as="geometry" />
        </mxCell>
        <mxCell id="f-DWgOqDwiJIsd9l93Yp-118" style="edgeStyle=orthogonalEdgeStyle;rounded=0;orthogonalLoop=1;jettySize=auto;html=1;exitX=0.5;exitY=1;exitDx=0;exitDy=0;entryX=0.48;entryY=0.013;entryDx=0;entryDy=0;entryPerimeter=0;strokeColor=#990001;strokeWidth=2;fillColor=#f8cecc;" edge="1" parent="1" source="f-DWgOqDwiJIsd9l93Yp-105" target="f-DWgOqDwiJIsd9l93Yp-115">
          <mxGeometry relative="1" as="geometry" />
        </mxCell>
        <mxCell id="f-DWgOqDwiJIsd9l93Yp-121" style="edgeStyle=orthogonalEdgeStyle;rounded=0;orthogonalLoop=1;jettySize=auto;html=1;exitX=0;exitY=0.5;exitDx=0;exitDy=0;entryX=1;entryY=0.5;entryDx=0;entryDy=0;strokeColor=#990001;strokeWidth=2;fillColor=#f8cecc;" edge="1" parent="1" source="f-DWgOqDwiJIsd9l93Yp-105" target="f-DWgOqDwiJIsd9l93Yp-110">
          <mxGeometry relative="1" as="geometry" />
        </mxCell>
        <mxCell id="f-DWgOqDwiJIsd9l93Yp-122" style="edgeStyle=orthogonalEdgeStyle;rounded=0;orthogonalLoop=1;jettySize=auto;html=1;exitX=0;exitY=0.5;exitDx=0;exitDy=0;entryX=1;entryY=0.5;entryDx=0;entryDy=0;strokeColor=#990001;strokeWidth=2;fillColor=#f8cecc;" edge="1" parent="1" source="f-DWgOqDwiJIsd9l93Yp-105" target="f-DWgOqDwiJIsd9l93Yp-109">
          <mxGeometry relative="1" as="geometry" />
        </mxCell>
        <mxCell id="f-DWgOqDwiJIsd9l93Yp-135" style="edgeStyle=orthogonalEdgeStyle;rounded=0;orthogonalLoop=1;jettySize=auto;html=1;exitX=1;exitY=0.5;exitDx=0;exitDy=0;entryX=0;entryY=0.5;entryDx=0;entryDy=0;strokeColor=#990001;strokeWidth=2;fillColor=#f8cecc;" edge="1" parent="1" source="f-DWgOqDwiJIsd9l93Yp-105" target="f-DWgOqDwiJIsd9l93Yp-134">
          <mxGeometry relative="1" as="geometry" />
        </mxCell>
        <mxCell id="f-DWgOqDwiJIsd9l93Yp-105" value="getMessageStatus" style="rounded=1;whiteSpace=wrap;html=1;verticalAlign=middle;fillColor=#E6FFCC;fontStyle=1;strokeWidth=3;" vertex="1" parent="1">
          <mxGeometry x="438.12" y="350" width="130" height="60" as="geometry" />
        </mxCell>
        <mxCell id="f-DWgOqDwiJIsd9l93Yp-109" value="getMessageReceipt" style="whiteSpace=wrap;align=center;verticalAlign=middle;fontStyle=1;strokeWidth=3;fillColor=#FFFFCC" vertex="1" parent="1">
          <mxGeometry x="225.62" y="390" width="135" height="60" as="geometry" />
        </mxCell>
        <mxCell id="f-DWgOqDwiJIsd9l93Yp-110" value="toCrossChainMessage" style="whiteSpace=wrap;align=center;verticalAlign=middle;fontStyle=1;strokeWidth=3;fillColor=#FFFFCC" vertex="1" parent="1">
          <mxGeometry x="209.12" y="310" width="151.5" height="60" as="geometry" />
        </mxCell>
        <mxCell id="f-DWgOqDwiJIsd9l93Yp-131" style="edgeStyle=orthogonalEdgeStyle;rounded=0;orthogonalLoop=1;jettySize=auto;html=1;entryX=1;entryY=0.5;entryDx=0;entryDy=0;strokeColor=#990001;strokeWidth=2;fillColor=#f8cecc;" edge="1" parent="1" source="f-DWgOqDwiJIsd9l93Yp-115" target="f-DWgOqDwiJIsd9l93Yp-116">
          <mxGeometry relative="1" as="geometry" />
        </mxCell>
        <mxCell id="f-DWgOqDwiJIsd9l93Yp-132" style="edgeStyle=orthogonalEdgeStyle;rounded=0;orthogonalLoop=1;jettySize=auto;html=1;entryX=1;entryY=0.5;entryDx=0;entryDy=0;strokeColor=#990001;strokeWidth=2;fillColor=#f8cecc;" edge="1" parent="1" source="f-DWgOqDwiJIsd9l93Yp-115" target="f-DWgOqDwiJIsd9l93Yp-123">
          <mxGeometry relative="1" as="geometry" />
        </mxCell>
        <mxCell id="f-DWgOqDwiJIsd9l93Yp-133" style="edgeStyle=orthogonalEdgeStyle;rounded=0;orthogonalLoop=1;jettySize=auto;html=1;entryX=1;entryY=0.5;entryDx=0;entryDy=0;strokeColor=#990001;strokeWidth=2;fillColor=#f8cecc;" edge="1" parent="1" source="f-DWgOqDwiJIsd9l93Yp-115" target="f-DWgOqDwiJIsd9l93Yp-124">
          <mxGeometry relative="1" as="geometry" />
        </mxCell>
        <mxCell id="f-DWgOqDwiJIsd9l93Yp-115" value="&lt;b&gt;L2 to L1&lt;/b&gt;" style="html=1;whiteSpace=wrap;aspect=fixed;shape=isoRectangle;fillColor=#f8cecc;strokeColor=#b85450;" vertex="1" parent="1">
          <mxGeometry x="443.12" y="580.5" width="125" height="75" as="geometry" />
        </mxCell>
        <mxCell id="f-DWgOqDwiJIsd9l93Yp-116" value="getMessageBedrockOutput" style="whiteSpace=wrap;align=center;verticalAlign=middle;fontStyle=1;strokeWidth=3;fillColor=#FFFFCC" vertex="1" parent="1">
          <mxGeometry x="160" y="503" width="210" height="60" as="geometry" />
        </mxCell>
        <mxCell id="f-DWgOqDwiJIsd9l93Yp-123" value="toLowLevelMessage" style="whiteSpace=wrap;align=center;verticalAlign=middle;fontStyle=1;strokeWidth=3;fillColor=#FFFFCC" vertex="1" parent="1">
          <mxGeometry x="195" y="588" width="175" height="60" as="geometry" />
        </mxCell>
        <mxCell id="f-DWgOqDwiJIsd9l93Yp-124" value="getMessageStateRoot" style="whiteSpace=wrap;align=center;verticalAlign=middle;fontStyle=1;strokeWidth=3;fillColor=#FFFFCC" vertex="1" parent="1">
          <mxGeometry x="195" y="678" width="175" height="60" as="geometry" />
        </mxCell>
        <mxCell id="f-DWgOqDwiJIsd9l93Yp-136" style="edgeStyle=orthogonalEdgeStyle;rounded=0;orthogonalLoop=1;jettySize=auto;html=1;exitX=0.5;exitY=1;exitDx=0;exitDy=0;entryX=0;entryY=0.5;entryDx=0;entryDy=0;strokeColor=#990001;strokeWidth=2;fillColor=#f8cecc;" edge="1" parent="1" source="f-DWgOqDwiJIsd9l93Yp-134" target="f-DWgOqDwiJIsd9l93Yp-110">
          <mxGeometry relative="1" as="geometry">
            <Array as="points">
              <mxPoint x="749.12" y="470" />
              <mxPoint x="168.12" y="470" />
              <mxPoint x="168.12" y="340" />
            </Array>
          </mxGeometry>
        </mxCell>
        <mxCell id="f-DWgOqDwiJIsd9l93Yp-140" value="" style="edgeStyle=orthogonalEdgeStyle;rounded=0;orthogonalLoop=1;jettySize=auto;html=1;strokeColor=#990001;strokeWidth=2;fillColor=#f8cecc;" edge="1" parent="1" source="f-DWgOqDwiJIsd9l93Yp-134" target="f-DWgOqDwiJIsd9l93Yp-137">
          <mxGeometry relative="1" as="geometry" />
        </mxCell>
        <mxCell id="f-DWgOqDwiJIsd9l93Yp-134" value="getMessageBedrockOutput" style="rounded=1;whiteSpace=wrap;html=1;verticalAlign=middle;fillColor=#E6FFCC;fontStyle=1;strokeWidth=3;" vertex="1" parent="1">
          <mxGeometry x="659.12" y="350" width="180" height="60" as="geometry" />
        </mxCell>
        <mxCell id="f-DWgOqDwiJIsd9l93Yp-139" style="edgeStyle=orthogonalEdgeStyle;rounded=0;orthogonalLoop=1;jettySize=auto;html=1;exitX=0.5;exitY=1;exitDx=0;exitDy=0;entryX=0.5;entryY=0;entryDx=0;entryDy=0;strokeColor=#990001;strokeWidth=2;fillColor=#f8cecc;" edge="1" parent="1" source="f-DWgOqDwiJIsd9l93Yp-137" target="f-DWgOqDwiJIsd9l93Yp-138">
          <mxGeometry relative="1" as="geometry" />
        </mxCell>
        <mxCell id="f-DWgOqDwiJIsd9l93Yp-142" style="edgeStyle=orthogonalEdgeStyle;rounded=0;orthogonalLoop=1;jettySize=auto;html=1;exitX=1;exitY=0.5;exitDx=0;exitDy=0;entryX=0;entryY=0.5;entryDx=0;entryDy=0;strokeColor=#990001;strokeWidth=2;fillColor=#f8cecc;" edge="1" parent="1" source="f-DWgOqDwiJIsd9l93Yp-137" target="f-DWgOqDwiJIsd9l93Yp-141">
          <mxGeometry relative="1" as="geometry" />
        </mxCell>
        <mxCell id="f-DWgOqDwiJIsd9l93Yp-137" value="proveMessage" style="rounded=1;whiteSpace=wrap;html=1;verticalAlign=middle;fillColor=#E6FFCC;fontStyle=1;strokeWidth=3;" vertex="1" parent="1">
          <mxGeometry x="928.12" y="350" width="180" height="60" as="geometry" />
        </mxCell>
        <mxCell id="f-DWgOqDwiJIsd9l93Yp-138" value="populateTransaction.proveMessage" style="whiteSpace=wrap;align=center;verticalAlign=middle;fontStyle=1;strokeWidth=3;fillColor=#FFFFCC" vertex="1" parent="1">
          <mxGeometry x="888.12" y="480" width="260" height="57" as="geometry" />
        </mxCell>
        <mxCell id="f-DWgOqDwiJIsd9l93Yp-144" style="edgeStyle=orthogonalEdgeStyle;rounded=0;orthogonalLoop=1;jettySize=auto;html=1;exitX=0.5;exitY=1;exitDx=0;exitDy=0;entryX=0.5;entryY=0;entryDx=0;entryDy=0;strokeColor=#990001;strokeWidth=2;fillColor=#f8cecc;" edge="1" parent="1" source="f-DWgOqDwiJIsd9l93Yp-141" target="f-DWgOqDwiJIsd9l93Yp-143">
          <mxGeometry relative="1" as="geometry" />
        </mxCell>
        <mxCell id="f-DWgOqDwiJIsd9l93Yp-141" value="finalizeMessage" style="rounded=1;whiteSpace=wrap;html=1;verticalAlign=middle;fillColor=#E6FFCC;fontStyle=1;strokeWidth=3;" vertex="1" parent="1">
          <mxGeometry x="1248.12" y="350" width="180" height="60" as="geometry" />
        </mxCell>
        <mxCell id="f-DWgOqDwiJIsd9l93Yp-143" value="populateTransaction.finalizeMessage" style="whiteSpace=wrap;align=center;verticalAlign=middle;fontStyle=1;strokeWidth=3;fillColor=#FFFFCC" vertex="1" parent="1">
          <mxGeometry x="1208.12" y="480" width="260" height="57" as="geometry" />
        </mxCell>
      </root>
    </mxGraphModel>
  </diagram>
</mxfile>
